<mxfile host="Electron" agent="Mozilla/5.0 (Windows NT 10.0; Win64; x64) AppleWebKit/537.36 (KHTML, like Gecko) draw.io/27.0.9 Chrome/134.0.6998.205 Electron/35.4.0 Safari/537.36" version="27.0.9">
  <diagram name="Page-1" id="TfqSfKkqSXzZEk-eTNJX">
    <mxGraphModel dx="2073" dy="1925" grid="1" gridSize="10" guides="1" tooltips="1" connect="1" arrows="1" fold="1" page="1" pageScale="1" pageWidth="827" pageHeight="1169" math="0" shadow="0">
      <root>
        <mxCell id="0" />
        <mxCell id="1" parent="0" />
        <mxCell id="SEBXCIEi1Ep4QCb8xXwG-51" value="Public subnet" style="points=[[0,0],[0.25,0],[0.5,0],[0.75,0],[1,0],[1,0.25],[1,0.5],[1,0.75],[1,1],[0.75,1],[0.5,1],[0.25,1],[0,1],[0,0.75],[0,0.5],[0,0.25]];outlineConnect=0;gradientColor=none;html=1;whiteSpace=wrap;fontSize=12;fontStyle=0;container=1;pointerEvents=0;collapsible=0;recursiveResize=0;shape=mxgraph.aws4.group;grIcon=mxgraph.aws4.group_security_group;grStroke=0;strokeColor=#7AA116;fillColor=#F2F6E8;verticalAlign=top;align=left;spacingLeft=30;fontColor=default;dashed=0;labelBackgroundColor=none;" parent="1" vertex="1">
          <mxGeometry x="-150" y="-110" width="570" height="200" as="geometry" />
        </mxCell>
        <mxCell id="SEBXCIEi1Ep4QCb8xXwG-53" value="Public subnet" style="points=[[0,0],[0.25,0],[0.5,0],[0.75,0],[1,0],[1,0.25],[1,0.5],[1,0.75],[1,1],[0.75,1],[0.5,1],[0.25,1],[0,1],[0,0.75],[0,0.5],[0,0.25]];outlineConnect=0;gradientColor=none;html=1;whiteSpace=wrap;fontSize=12;fontStyle=0;container=1;pointerEvents=0;collapsible=0;recursiveResize=0;shape=mxgraph.aws4.group;grIcon=mxgraph.aws4.group_security_group;grStroke=0;strokeColor=#7AA116;fillColor=#F2F6E8;verticalAlign=top;align=left;spacingLeft=30;fontColor=default;dashed=0;labelBackgroundColor=none;" parent="1" vertex="1">
          <mxGeometry x="-150" y="180" width="570" height="160" as="geometry" />
        </mxCell>
        <mxCell id="SEBXCIEi1Ep4QCb8xXwG-3" value="AWS Account [JFC]" style="points=[[0,0],[0.25,0],[0.5,0],[0.75,0],[1,0],[1,0.25],[1,0.5],[1,0.75],[1,1],[0.75,1],[0.5,1],[0.25,1],[0,1],[0,0.75],[0,0.5],[0,0.25]];outlineConnect=0;gradientColor=none;html=1;whiteSpace=wrap;fontSize=12;fontStyle=0;container=1;pointerEvents=0;collapsible=0;recursiveResize=0;shape=mxgraph.aws4.group;grIcon=mxgraph.aws4.group_account;strokeColor=#CD2264;fillColor=none;verticalAlign=top;align=left;spacingLeft=30;fontColor=#CD2264;dashed=0;" parent="1" vertex="1">
          <mxGeometry x="-430" y="-320" width="1090" height="750" as="geometry" />
        </mxCell>
        <mxCell id="Vi_IDFiSx5nY2ii_YR5J-6" value="" style="edgeStyle=orthogonalEdgeStyle;rounded=0;orthogonalLoop=1;jettySize=auto;html=1;" edge="1" parent="SEBXCIEi1Ep4QCb8xXwG-3" source="SEBXCIEi1Ep4QCb8xXwG-43" target="Vi_IDFiSx5nY2ii_YR5J-3">
          <mxGeometry relative="1" as="geometry" />
        </mxCell>
        <mxCell id="SEBXCIEi1Ep4QCb8xXwG-43" value="JFC Route53" style="sketch=0;points=[[0,0,0],[0.25,0,0],[0.5,0,0],[0.75,0,0],[1,0,0],[0,1,0],[0.25,1,0],[0.5,1,0],[0.75,1,0],[1,1,0],[0,0.25,0],[0,0.5,0],[0,0.75,0],[1,0.25,0],[1,0.5,0],[1,0.75,0]];outlineConnect=0;fontColor=#232F3E;fillColor=#8C4FFF;strokeColor=#ffffff;dashed=0;verticalLabelPosition=bottom;verticalAlign=top;align=center;html=1;fontSize=12;fontStyle=0;aspect=fixed;shape=mxgraph.aws4.resourceIcon;resIcon=mxgraph.aws4.route_53;" parent="SEBXCIEi1Ep4QCb8xXwG-3" vertex="1">
          <mxGeometry x="16.5" y="475" width="50" height="50" as="geometry" />
        </mxCell>
        <mxCell id="Vi_IDFiSx5nY2ii_YR5J-3" value="Cloudfront" style="sketch=0;points=[[0,0,0],[0.25,0,0],[0.5,0,0],[0.75,0,0],[1,0,0],[0,1,0],[0.25,1,0],[0.5,1,0],[0.75,1,0],[1,1,0],[0,0.25,0],[0,0.5,0],[0,0.75,0],[1,0.25,0],[1,0.5,0],[1,0.75,0]];outlineConnect=0;fontColor=#232F3E;fillColor=#8C4FFF;strokeColor=#ffffff;dashed=0;verticalLabelPosition=bottom;verticalAlign=top;align=center;html=1;fontSize=12;fontStyle=0;aspect=fixed;shape=mxgraph.aws4.resourceIcon;resIcon=mxgraph.aws4.cloudfront;" vertex="1" parent="SEBXCIEi1Ep4QCb8xXwG-3">
          <mxGeometry x="17" y="556" width="44" height="44" as="geometry" />
        </mxCell>
        <mxCell id="SEBXCIEi1Ep4QCb8xXwG-4" value="Region [us-east-1]" style="points=[[0,0],[0.25,0],[0.5,0],[0.75,0],[1,0],[1,0.25],[1,0.5],[1,0.75],[1,1],[0.75,1],[0.5,1],[0.25,1],[0,1],[0,0.75],[0,0.5],[0,0.25]];outlineConnect=0;gradientColor=none;html=1;whiteSpace=wrap;fontSize=12;fontStyle=0;container=1;pointerEvents=0;collapsible=0;recursiveResize=0;shape=mxgraph.aws4.group;grIcon=mxgraph.aws4.group_region;strokeColor=#00A4A6;fillColor=none;verticalAlign=top;align=left;spacingLeft=30;fontColor=#147EBA;dashed=1;" parent="1" vertex="1">
          <mxGeometry x="-330" y="-240" width="950" height="650" as="geometry" />
        </mxCell>
        <mxCell id="SEBXCIEi1Ep4QCb8xXwG-16" value="Dynamo DB" style="outlineConnect=0;dashed=0;verticalLabelPosition=bottom;verticalAlign=top;align=center;html=1;shape=mxgraph.aws3.dynamo_db;fillColor=#2E73B8;gradientColor=none;labelPosition=center;" parent="SEBXCIEi1Ep4QCb8xXwG-4" vertex="1">
          <mxGeometry x="850" y="320" width="72" height="81" as="geometry" />
        </mxCell>
        <mxCell id="SEBXCIEi1Ep4QCb8xXwG-42" value="CloudWatch" style="sketch=0;points=[[0,0,0],[0.25,0,0],[0.5,0,0],[0.75,0,0],[1,0,0],[0,1,0],[0.25,1,0],[0.5,1,0],[0.75,1,0],[1,1,0],[0,0.25,0],[0,0.5,0],[0,0.75,0],[1,0.25,0],[1,0.5,0],[1,0.75,0]];points=[[0,0,0],[0.25,0,0],[0.5,0,0],[0.75,0,0],[1,0,0],[0,1,0],[0.25,1,0],[0.5,1,0],[0.75,1,0],[1,1,0],[0,0.25,0],[0,0.5,0],[0,0.75,0],[1,0.25,0],[1,0.5,0],[1,0.75,0]];outlineConnect=0;fontColor=#232F3E;fillColor=#E7157B;strokeColor=#ffffff;dashed=0;verticalLabelPosition=bottom;verticalAlign=top;align=center;html=1;fontSize=12;fontStyle=0;aspect=fixed;shape=mxgraph.aws4.resourceIcon;resIcon=mxgraph.aws4.cloudwatch_2;" parent="SEBXCIEi1Ep4QCb8xXwG-4" vertex="1">
          <mxGeometry x="200" y="10" width="50" height="50" as="geometry" />
        </mxCell>
        <mxCell id="SEBXCIEi1Ep4QCb8xXwG-7" value="VPC-XX" style="points=[[0,0],[0.25,0],[0.5,0],[0.75,0],[1,0],[1,0.25],[1,0.5],[1,0.75],[1,1],[0.75,1],[0.5,1],[0.25,1],[0,1],[0,0.75],[0,0.5],[0,0.25]];outlineConnect=0;gradientColor=none;html=1;whiteSpace=wrap;fontSize=12;fontStyle=0;container=0;pointerEvents=0;collapsible=0;recursiveResize=0;shape=mxgraph.aws4.group;grIcon=mxgraph.aws4.group_vpc2;strokeColor=#8C4FFF;fillColor=none;verticalAlign=top;align=left;spacingLeft=30;fontColor=#AAB7B8;dashed=0;" parent="1" vertex="1">
          <mxGeometry x="-300" y="-150" width="760" height="520" as="geometry" />
        </mxCell>
        <mxCell id="SEBXCIEi1Ep4QCb8xXwG-8" value="Availability Zone [az A]" style="fillColor=none;strokeColor=#147EBA;dashed=1;verticalAlign=top;fontStyle=0;fontColor=#147EBA;whiteSpace=wrap;html=1;align=left;container=0;" parent="1" vertex="1">
          <mxGeometry x="-160" y="-140" width="600" height="230" as="geometry" />
        </mxCell>
        <mxCell id="SEBXCIEi1Ep4QCb8xXwG-9" value="Availability Zone [az B]" style="fillColor=none;strokeColor=#147EBA;dashed=1;verticalAlign=top;fontStyle=0;fontColor=#147EBA;whiteSpace=wrap;html=1;align=left;" parent="1" vertex="1">
          <mxGeometry x="-160" y="150" width="600" height="200" as="geometry" />
        </mxCell>
        <mxCell id="SEBXCIEi1Ep4QCb8xXwG-30" value="" style="group" parent="1" vertex="1" connectable="0">
          <mxGeometry x="260" y="-87" width="160" height="400" as="geometry" />
        </mxCell>
        <mxCell id="SEBXCIEi1Ep4QCb8xXwG-31" value="NameSpace&lt;br&gt;APP" style="outlineConnect=0;gradientColor=none;html=1;whiteSpace=wrap;fontSize=12;fontStyle=0;strokeColor=#879196;fillColor=none;verticalAlign=top;align=center;fontColor=#879196;dashed=1;spacingTop=3;container=1;" parent="SEBXCIEi1Ep4QCb8xXwG-30" vertex="1">
          <mxGeometry y="10" width="160" height="390" as="geometry">
            <mxRectangle x="10" y="40" width="110" height="30" as="alternateBounds" />
          </mxGeometry>
        </mxCell>
        <mxCell id="SEBXCIEi1Ep4QCb8xXwG-25" value="Service" style="aspect=fixed;sketch=0;html=1;dashed=0;whitespace=wrap;verticalLabelPosition=bottom;verticalAlign=top;fillColor=#2875E2;strokeColor=#ffffff;points=[[0.005,0.63,0],[0.1,0.2,0],[0.9,0.2,0],[0.5,0,0],[0.995,0.63,0],[0.72,0.99,0],[0.5,1,0],[0.28,0.99,0]];shape=mxgraph.kubernetes.icon2;prIcon=svc" parent="SEBXCIEi1Ep4QCb8xXwG-30" vertex="1">
          <mxGeometry x="10" y="181.63" width="50" height="48" as="geometry" />
        </mxCell>
        <mxCell id="SEBXCIEi1Ep4QCb8xXwG-11" value="EKS [Node Group]" style="points=[[0,0],[0.25,0],[0.5,0],[0.75,0],[1,0],[1,0.25],[1,0.5],[1,0.75],[1,1],[0.75,1],[0.5,1],[0.25,1],[0,1],[0,0.75],[0,0.5],[0,0.25]];outlineConnect=0;gradientColor=none;html=1;whiteSpace=wrap;fontSize=12;fontStyle=0;container=1;pointerEvents=0;collapsible=0;recursiveResize=0;shape=mxgraph.aws4.group;grIcon=mxgraph.aws4.group_ec2_instance_contents;strokeColor=#D86613;fillColor=none;verticalAlign=top;align=left;spacingLeft=30;fontColor=#D86613;dashed=0;" parent="1" vertex="1">
          <mxGeometry x="100" y="-120" width="330" height="450" as="geometry" />
        </mxCell>
        <mxCell id="SEBXCIEi1Ep4QCb8xXwG-10" value="" style="sketch=0;points=[[0,0,0],[0.25,0,0],[0.5,0,0],[0.75,0,0],[1,0,0],[0,1,0],[0.25,1,0],[0.5,1,0],[0.75,1,0],[1,1,0],[0,0.25,0],[0,0.5,0],[0,0.75,0],[1,0.25,0],[1,0.5,0],[1,0.75,0]];outlineConnect=0;fontColor=#232F3E;fillColor=#ED7100;strokeColor=#ffffff;dashed=0;verticalLabelPosition=bottom;verticalAlign=top;align=center;html=1;fontSize=12;fontStyle=0;aspect=fixed;shape=mxgraph.aws4.resourceIcon;resIcon=mxgraph.aws4.eks_cloud;" parent="SEBXCIEi1Ep4QCb8xXwG-11" vertex="1">
          <mxGeometry width="30" height="30" as="geometry" />
        </mxCell>
        <mxCell id="SEBXCIEi1Ep4QCb8xXwG-22" value="" style="group" parent="SEBXCIEi1Ep4QCb8xXwG-11" vertex="1" connectable="0">
          <mxGeometry x="20" y="43" width="100" height="390" as="geometry" />
        </mxCell>
        <mxCell id="SEBXCIEi1Ep4QCb8xXwG-19" value="NameSpace&lt;br&gt;KubeSystem" style="outlineConnect=0;gradientColor=none;html=1;whiteSpace=wrap;fontSize=12;fontStyle=0;strokeColor=#879196;fillColor=none;verticalAlign=top;align=center;fontColor=#879196;dashed=1;spacingTop=3;container=1;" parent="SEBXCIEi1Ep4QCb8xXwG-22" vertex="1">
          <mxGeometry width="100" height="390.00000000000006" as="geometry">
            <mxRectangle x="10" y="40" width="110" height="30" as="alternateBounds" />
          </mxGeometry>
        </mxCell>
        <mxCell id="SEBXCIEi1Ep4QCb8xXwG-21" value="Ingress" style="aspect=fixed;sketch=0;html=1;dashed=0;whitespace=wrap;verticalLabelPosition=bottom;verticalAlign=top;fillColor=#2875E2;strokeColor=#ffffff;points=[[0.005,0.63,0],[0.1,0.2,0],[0.9,0.2,0],[0.5,0,0],[0.995,0.63,0],[0.72,0.99,0],[0.5,1,0],[0.28,0.99,0]];shape=mxgraph.kubernetes.icon2;prIcon=ing" parent="SEBXCIEi1Ep4QCb8xXwG-22" vertex="1">
          <mxGeometry x="14.285714285714285" y="170.3684210526316" width="51.31578947368421" height="49.26315789473685" as="geometry" />
        </mxCell>
        <mxCell id="SEBXCIEi1Ep4QCb8xXwG-15" value="" style="aspect=fixed;sketch=0;html=1;dashed=0;whitespace=wrap;verticalLabelPosition=bottom;verticalAlign=top;fillColor=#2875E2;strokeColor=#ffffff;points=[[0.005,0.63,0],[0.1,0.2,0],[0.9,0.2,0],[0.5,0,0],[0.995,0.63,0],[0.72,0.99,0],[0.5,1,0],[0.28,0.99,0]];shape=mxgraph.kubernetes.icon2;kubernetesLabel=1;prIcon=pod" parent="SEBXCIEi1Ep4QCb8xXwG-11" vertex="1">
          <mxGeometry x="249" y="340" width="50" height="48" as="geometry" />
        </mxCell>
        <mxCell id="SEBXCIEi1Ep4QCb8xXwG-12" value="" style="aspect=fixed;sketch=0;html=1;dashed=0;whitespace=wrap;verticalLabelPosition=bottom;verticalAlign=top;fillColor=#2875E2;strokeColor=#ffffff;points=[[0.005,0.63,0],[0.1,0.2,0],[0.9,0.2,0],[0.5,0,0],[0.995,0.63,0],[0.72,0.99,0],[0.5,1,0],[0.28,0.99,0]];shape=mxgraph.kubernetes.icon2;kubernetesLabel=1;prIcon=pod" parent="SEBXCIEi1Ep4QCb8xXwG-11" vertex="1">
          <mxGeometry x="249" y="70" width="41.67" height="40" as="geometry" />
        </mxCell>
        <mxCell id="SEBXCIEi1Ep4QCb8xXwG-26" style="edgeStyle=orthogonalEdgeStyle;rounded=0;orthogonalLoop=1;jettySize=auto;html=1;entryX=0.06;entryY=0.5;entryDx=0;entryDy=0;entryPerimeter=0;" parent="1" source="SEBXCIEi1Ep4QCb8xXwG-21" target="SEBXCIEi1Ep4QCb8xXwG-25" edge="1">
          <mxGeometry relative="1" as="geometry" />
        </mxCell>
        <mxCell id="SEBXCIEi1Ep4QCb8xXwG-34" style="edgeStyle=orthogonalEdgeStyle;rounded=0;orthogonalLoop=1;jettySize=auto;html=1;entryX=0.005;entryY=0.63;entryDx=0;entryDy=0;entryPerimeter=0;exitX=0.5;exitY=0;exitDx=0;exitDy=0;exitPerimeter=0;" parent="1" source="SEBXCIEi1Ep4QCb8xXwG-25" target="SEBXCIEi1Ep4QCb8xXwG-12" edge="1">
          <mxGeometry relative="1" as="geometry" />
        </mxCell>
        <mxCell id="SEBXCIEi1Ep4QCb8xXwG-35" style="edgeStyle=orthogonalEdgeStyle;rounded=0;orthogonalLoop=1;jettySize=auto;html=1;entryX=0.5;entryY=0;entryDx=0;entryDy=0;entryPerimeter=0;exitX=0.5;exitY=1;exitDx=0;exitDy=0;exitPerimeter=0;" parent="1" source="SEBXCIEi1Ep4QCb8xXwG-25" target="SEBXCIEi1Ep4QCb8xXwG-15" edge="1">
          <mxGeometry relative="1" as="geometry" />
        </mxCell>
        <mxCell id="SEBXCIEi1Ep4QCb8xXwG-36" style="edgeStyle=orthogonalEdgeStyle;rounded=0;orthogonalLoop=1;jettySize=auto;html=1;" parent="1" source="SEBXCIEi1Ep4QCb8xXwG-15" target="SEBXCIEi1Ep4QCb8xXwG-16" edge="1">
          <mxGeometry relative="1" as="geometry" />
        </mxCell>
        <mxCell id="SEBXCIEi1Ep4QCb8xXwG-37" style="edgeStyle=orthogonalEdgeStyle;rounded=0;orthogonalLoop=1;jettySize=auto;html=1;entryX=0.5;entryY=0;entryDx=0;entryDy=0;entryPerimeter=0;" parent="1" source="SEBXCIEi1Ep4QCb8xXwG-12" target="SEBXCIEi1Ep4QCb8xXwG-16" edge="1">
          <mxGeometry relative="1" as="geometry" />
        </mxCell>
        <mxCell id="SEBXCIEi1Ep4QCb8xXwG-38" value="Application&lt;br&gt;Load Balancer" style="sketch=0;outlineConnect=0;fontColor=#232F3E;gradientColor=none;fillColor=#8C4FFF;strokeColor=none;dashed=0;verticalLabelPosition=bottom;verticalAlign=top;align=center;html=1;fontSize=12;fontStyle=0;aspect=fixed;pointerEvents=1;shape=mxgraph.aws4.application_load_balancer;" parent="1" vertex="1">
          <mxGeometry x="-20" y="76" width="98" height="98" as="geometry" />
        </mxCell>
        <mxCell id="SEBXCIEi1Ep4QCb8xXwG-40" style="edgeStyle=orthogonalEdgeStyle;rounded=0;orthogonalLoop=1;jettySize=auto;html=1;entryX=0.005;entryY=0.63;entryDx=0;entryDy=0;entryPerimeter=0;" parent="1" source="SEBXCIEi1Ep4QCb8xXwG-38" target="SEBXCIEi1Ep4QCb8xXwG-21" edge="1">
          <mxGeometry relative="1" as="geometry" />
        </mxCell>
        <mxCell id="SEBXCIEi1Ep4QCb8xXwG-47" style="edgeStyle=orthogonalEdgeStyle;rounded=0;orthogonalLoop=1;jettySize=auto;html=1;" parent="1" source="SEBXCIEi1Ep4QCb8xXwG-45" target="SEBXCIEi1Ep4QCb8xXwG-46" edge="1">
          <mxGeometry relative="1" as="geometry" />
        </mxCell>
        <mxCell id="SEBXCIEi1Ep4QCb8xXwG-45" value="JFC User" style="shape=actor;whiteSpace=wrap;html=1;labelPosition=center;verticalLabelPosition=bottom;align=center;verticalAlign=top;" parent="1" vertex="1">
          <mxGeometry x="-680" y="95" width="40" height="60" as="geometry" />
        </mxCell>
        <mxCell id="SEBXCIEi1Ep4QCb8xXwG-48" style="edgeStyle=orthogonalEdgeStyle;rounded=0;orthogonalLoop=1;jettySize=auto;html=1;" parent="1" source="SEBXCIEi1Ep4QCb8xXwG-55" target="SEBXCIEi1Ep4QCb8xXwG-38" edge="1">
          <mxGeometry relative="1" as="geometry" />
        </mxCell>
        <mxCell id="SEBXCIEi1Ep4QCb8xXwG-46" value="Internet" style="image;aspect=fixed;perimeter=ellipsePerimeter;html=1;align=center;shadow=0;dashed=0;spacingTop=3;image=img/lib/active_directory/internet_cloud.svg;" parent="1" vertex="1">
          <mxGeometry x="-570" y="87.5" width="119.05" height="75" as="geometry" />
        </mxCell>
        <mxCell id="SEBXCIEi1Ep4QCb8xXwG-56" value="" style="edgeStyle=orthogonalEdgeStyle;rounded=0;orthogonalLoop=1;jettySize=auto;html=1;entryX=0.5;entryY=0;entryDx=0;entryDy=0;entryPerimeter=0;" parent="1" source="SEBXCIEi1Ep4QCb8xXwG-46" target="SEBXCIEi1Ep4QCb8xXwG-43" edge="1">
          <mxGeometry relative="1" as="geometry">
            <mxPoint x="-391" y="125" as="sourcePoint" />
            <mxPoint x="-20" y="125" as="targetPoint" />
            <Array as="points">
              <mxPoint x="-389" y="120" />
            </Array>
          </mxGeometry>
        </mxCell>
        <mxCell id="SEBXCIEi1Ep4QCb8xXwG-55" value="Internet Gateway" style="sketch=0;outlineConnect=0;fontColor=#232F3E;gradientColor=none;fillColor=#8C4FFF;strokeColor=none;dashed=0;verticalLabelPosition=bottom;verticalAlign=top;align=center;html=1;fontSize=12;fontStyle=0;aspect=fixed;pointerEvents=1;shape=mxgraph.aws4.internet_gateway;" parent="1" vertex="1">
          <mxGeometry x="-310" y="101" width="48" height="48" as="geometry" />
        </mxCell>
        <mxCell id="Vi_IDFiSx5nY2ii_YR5J-5" value="" style="edgeStyle=orthogonalEdgeStyle;rounded=0;orthogonalLoop=1;jettySize=auto;html=1;" edge="1" parent="1" source="Vi_IDFiSx5nY2ii_YR5J-3" target="SEBXCIEi1Ep4QCb8xXwG-55">
          <mxGeometry relative="1" as="geometry" />
        </mxCell>
      </root>
    </mxGraphModel>
  </diagram>
</mxfile>
